<mxfile host="Electron" agent="Mozilla/5.0 (X11; Linux x86_64) AppleWebKit/537.36 (KHTML, like Gecko) draw.io/28.1.2 Chrome/138.0.7204.243 Electron/37.4.0 Safari/537.36" version="28.1.2">
  <diagram name="Page-1" id="YH6CoolbgTtlgTintEW7">
    <mxGraphModel dx="1188" dy="729" grid="1" gridSize="10" guides="1" tooltips="1" connect="1" arrows="1" fold="1" page="1" pageScale="1" pageWidth="3200" pageHeight="1400" math="0" shadow="0">
      <root>
        <mxCell id="0" />
        <mxCell id="1" parent="0" />
        <mxCell id="FKWvUCUKL_jMdwj0c6j4-5" style="edgeStyle=orthogonalEdgeStyle;rounded=0;orthogonalLoop=1;jettySize=auto;html=1;entryX=0.5;entryY=1;entryDx=0;entryDy=0;" edge="1" parent="1" source="FKWvUCUKL_jMdwj0c6j4-1" target="FKWvUCUKL_jMdwj0c6j4-2">
          <mxGeometry relative="1" as="geometry" />
        </mxCell>
        <mxCell id="FKWvUCUKL_jMdwj0c6j4-6" value="Efficient but complicated interface that is hidden from us" style="edgeLabel;html=1;align=center;verticalAlign=middle;resizable=0;points=[];" vertex="1" connectable="0" parent="FKWvUCUKL_jMdwj0c6j4-5">
          <mxGeometry x="-0.0057" relative="1" as="geometry">
            <mxPoint as="offset" />
          </mxGeometry>
        </mxCell>
        <mxCell id="FKWvUCUKL_jMdwj0c6j4-1" value="&lt;font style=&quot;font-size: 60px;&quot;&gt;&lt;b&gt;ROS2&lt;/b&gt;&lt;/font&gt;" style="rounded=0;whiteSpace=wrap;html=1;" vertex="1" parent="1">
          <mxGeometry x="440" y="370" width="490" height="170" as="geometry" />
        </mxCell>
        <mxCell id="FKWvUCUKL_jMdwj0c6j4-2" value="&lt;b&gt;&lt;font style=&quot;font-size: 20px;&quot;&gt;ROS client library&lt;/font&gt;&lt;/b&gt;" style="rounded=0;whiteSpace=wrap;html=1;" vertex="1" parent="1">
          <mxGeometry x="440" y="240" width="490" height="60" as="geometry" />
        </mxCell>
        <mxCell id="FKWvUCUKL_jMdwj0c6j4-8" value="" style="sketch=0;outlineConnect=0;fontColor=#232F3E;gradientColor=none;fillColor=#232F3D;strokeColor=none;dashed=0;verticalLabelPosition=bottom;verticalAlign=top;align=center;html=1;fontSize=12;fontStyle=0;aspect=fixed;pointerEvents=1;shape=mxgraph.aws4.source_code;" vertex="1" parent="1">
          <mxGeometry x="583.25" y="110" width="57" height="78" as="geometry" />
        </mxCell>
        <mxCell id="FKWvUCUKL_jMdwj0c6j4-9" value="Application code:&lt;div&gt;Nodes, Packages,...&lt;/div&gt;" style="text;html=1;align=left;verticalAlign=middle;whiteSpace=wrap;rounded=0;" vertex="1" parent="1">
          <mxGeometry x="646.75" y="128" width="140" height="60" as="geometry" />
        </mxCell>
        <mxCell id="FKWvUCUKL_jMdwj0c6j4-10" value="" style="endArrow=classic;html=1;rounded=0;exitX=0.272;exitY=1.027;exitDx=0;exitDy=0;exitPerimeter=0;entryX=0.5;entryY=0;entryDx=0;entryDy=0;" edge="1" parent="1" source="FKWvUCUKL_jMdwj0c6j4-9" target="FKWvUCUKL_jMdwj0c6j4-2">
          <mxGeometry width="50" height="50" relative="1" as="geometry">
            <mxPoint x="670" y="250" as="sourcePoint" />
            <mxPoint x="720" y="200" as="targetPoint" />
          </mxGeometry>
        </mxCell>
        <mxCell id="FKWvUCUKL_jMdwj0c6j4-11" value="Interaction with a high level of abstraction" style="edgeLabel;html=1;align=center;verticalAlign=middle;resizable=0;points=[];" vertex="1" connectable="0" parent="FKWvUCUKL_jMdwj0c6j4-10">
          <mxGeometry x="-0.1434" y="-1" relative="1" as="geometry">
            <mxPoint as="offset" />
          </mxGeometry>
        </mxCell>
      </root>
    </mxGraphModel>
  </diagram>
</mxfile>
